<svg width="33" height="33" viewBox="0 0 33 33" fill="none" xmlns="http://www.w3.org/2000/svg">
<mask id="mask0_158_92" style="mask-type:alpha" maskUnits="userSpaceOnUse" x="0" y="0" width="33" height="33">
<g clip-path="url(#clip0_158_92)">
<path d="M32.9995 16.6011C32.9995 7.43118 25.6116 -0.0020752 16.4995 -0.0020752C7.38327 -1.26951e-05 -0.00460815 7.43118 -0.00460815 16.6031C-0.00460815 24.8882 6.03027 31.7563 13.9173 33.0021V21.4005H9.73039V16.6031H13.9214V12.9422C13.9214 8.78211 16.3861 6.48449 20.1543 6.48449C21.961 6.48449 23.8482 6.8083 23.8482 6.8083V10.8921H21.7671C19.7191 10.8921 19.0797 12.1729 19.0797 13.4867V16.6011H23.6543L22.9242 21.3984H19.0776V33C26.9646 31.7542 32.9995 24.8861 32.9995 16.6011Z" fill="black"/>
</g>
</mask>
<g mask="url(#mask0_158_92)">
<rect y="-6" width="39" height="48" fill="#2F8739"/>
</g>
<defs>
<clipPath id="clip0_158_92">
<rect width="33" height="33" fill="white"/>
</clipPath>
</defs>
</svg>
