<svg width="38" height="38" viewBox="0 0 38 38" fill="none" xmlns="http://www.w3.org/2000/svg">
<mask id="mask0_158_90" style="mask-type:alpha" maskUnits="userSpaceOnUse" x="0" y="0" width="38" height="38">
<path d="M12.35 3.16663H25.65C30.7167 3.16663 34.8333 7.28329 34.8333 12.35V25.65C34.8333 28.0855 33.8658 30.4214 32.1436 32.1436C30.4214 33.8658 28.0856 34.8333 25.65 34.8333H12.35C7.28334 34.8333 3.16667 30.7166 3.16667 25.65V12.35C3.16667 9.91439 4.1342 7.57857 5.85641 5.85636C7.57862 4.13415 9.91444 3.16663 12.35 3.16663ZM12.0333 6.33329C10.5216 6.33329 9.07179 6.93383 8.00283 8.00279C6.93387 9.07174 6.33334 10.5216 6.33334 12.0333V25.9666C6.33334 29.1175 8.88251 31.6666 12.0333 31.6666H25.9667C27.4784 31.6666 28.9282 31.0661 29.9972 29.9971C31.0661 28.9282 31.6667 27.4784 31.6667 25.9666V12.0333C31.6667 8.88246 29.1175 6.33329 25.9667 6.33329H12.0333ZM27.3125 8.70829C27.8374 8.70829 28.3408 8.91681 28.712 9.28798C29.0832 9.65914 29.2917 10.1626 29.2917 10.6875C29.2917 11.2124 29.0832 11.7158 28.712 12.0869C28.3408 12.4581 27.8374 12.6666 27.3125 12.6666C26.7876 12.6666 26.2842 12.4581 25.913 12.0869C25.5419 11.7158 25.3333 11.2124 25.3333 10.6875C25.3333 10.1626 25.5419 9.65914 25.913 9.28798C26.2842 8.91681 26.7876 8.70829 27.3125 8.70829ZM19 11.0833C21.0996 11.0833 23.1133 11.9174 24.5979 13.402C26.0826 14.8867 26.9167 16.9003 26.9167 19C26.9167 21.0996 26.0826 23.1132 24.5979 24.5979C23.1133 26.0826 21.0996 26.9166 19 26.9166C16.9004 26.9166 14.8867 26.0826 13.4021 24.5979C11.9174 23.1132 11.0833 21.0996 11.0833 19C11.0833 16.9003 11.9174 14.8867 13.4021 13.402C14.8867 11.9174 16.9004 11.0833 19 11.0833ZM19 14.25C17.7402 14.25 16.532 14.7504 15.6413 15.6412C14.7505 16.532 14.25 17.7402 14.25 19C14.25 20.2597 14.7505 21.4679 15.6413 22.3587C16.532 23.2495 17.7402 23.75 19 23.75C20.2598 23.75 21.468 23.2495 22.3588 22.3587C23.2496 21.4679 23.75 20.2597 23.75 19C23.75 17.7402 23.2496 16.532 22.3588 15.6412C21.468 14.7504 20.2598 14.25 19 14.25Z" fill="black"/>
</mask>
<g mask="url(#mask0_158_90)">
<rect x="-6" y="-3" width="44" height="41" fill="#2F8739"/>
</g>
</svg>
